<svg xmlns="http://www.w3.org/2000/svg" width="20" height="20" shape-rendering="geometricPrecision" image-rendering="optimizeQuality" fill-rule="evenodd" clip-rule="evenodd" viewBox="0 0 2.5164 2.5164"><path fill="#b2b3b3" d="m1.258 0c.695 0 1.258.563 1.258 1.258 0 .695-.563 1.258-1.258 1.258-.695 0-1.258-.563-1.258-1.258 0-.695.563-1.258 1.258-1.258m.249 1.067v.951h.057c.031 0 .057.026.057.057 0 .032-.026.057-.057.057h-.611c-.031 0-.057-.026-.057-.057 0-.032.026-.057.057-.057h.057v-.951h-.057c-.031 0-.057-.026-.057-.057 0-.032.026-.057.057-.057h.611c.031 0 .057.026.057.057 0 .032-.026.057-.057.057h-.057m-.245-.722c.149 0 .27.121.27.27 0 .149-.121.27-.27.27-.149 0-.27-.121-.27-.27 0-.149.121-.27.27-.27"/></svg>